<svg width="34" height="24" viewBox="0 0 34 24" fill="none" xmlns="http://www.w3.org/2000/svg">
<path d="M32.3365 9.41646L23.3987 6.20209L19.6524 1.50772C19.3273 1.11042 18.918 0.790244 18.4541 0.570299C17.9902 0.350354 17.4833 0.23612 16.9699 0.23584H7.71992C7.15565 0.238756 6.6006 0.37929 6.10293 0.645254C5.60525 0.911218 5.17998 1.29458 4.86398 1.76209L1.73055 6.38709C1.08144 7.33822 0.731166 8.46153 0.724609 9.61303V18.7358C0.724609 19.0425 0.846428 19.3366 1.06327 19.5534C1.28011 19.7703 1.5742 19.8921 1.88086 19.8921H4.35523C4.6215 20.8719 5.20277 21.7368 6.00936 22.3534C6.81596 22.9701 7.80305 23.3042 8.81836 23.3042C9.83367 23.3042 10.8208 22.9701 11.6274 22.3534C12.434 21.7368 13.0152 20.8719 13.2815 19.8921H20.5427C20.809 20.8719 21.3903 21.7368 22.1969 22.3534C23.0035 22.9701 23.9906 23.3042 25.0059 23.3042C26.0212 23.3042 27.0083 22.9701 27.8149 22.3534C28.6215 21.7368 29.2027 20.8719 29.469 19.8921H31.9434C32.25 19.8921 32.5441 19.7703 32.761 19.5534C32.9778 19.3366 33.0996 19.0425 33.0996 18.7358V10.5033C33.0995 10.2657 33.0262 10.0339 32.8896 9.83942C32.7531 9.64494 32.56 9.49726 32.3365 9.41646ZM8.81836 21.0483C8.36099 21.0483 7.91389 20.9127 7.5336 20.6586C7.15331 20.4045 6.85692 20.0434 6.68189 19.6208C6.50686 19.1982 6.46106 18.7333 6.55029 18.2847C6.63952 17.8361 6.85977 17.4241 7.18317 17.1007C7.50658 16.7772 7.91863 16.557 8.36721 16.4678C8.81579 16.3785 9.28076 16.4243 9.70331 16.5994C10.1259 16.7744 10.487 17.0708 10.7411 17.4511C10.9952 17.8314 11.1309 18.2785 11.1309 18.7358C11.1309 19.3492 10.8872 19.9373 10.4535 20.371C10.0199 20.8047 9.43167 21.0483 8.81836 21.0483ZM25.0059 21.0483C24.5485 21.0483 24.1014 20.9127 23.7211 20.6586C23.3408 20.4045 23.0444 20.0434 22.8694 19.6208C22.6944 19.1982 22.6486 18.7333 22.7378 18.2847C22.827 17.8361 23.0473 17.4241 23.3707 17.1007C23.6941 16.7772 24.1061 16.557 24.5547 16.4678C25.0033 16.3785 25.4683 16.4243 25.8908 16.5994C26.3134 16.7744 26.6745 17.0708 26.9286 17.4511C27.1827 17.8314 27.3184 18.2785 27.3184 18.7358C27.3184 19.3492 27.0747 19.9373 26.641 20.371C26.2074 20.8047 25.6192 21.0483 25.0059 21.0483ZM30.7871 17.5796H29.469C29.2027 16.5998 28.6215 15.7349 27.8149 15.1182C27.0083 14.5016 26.0212 14.1675 25.0059 14.1675C23.9906 14.1675 23.0035 14.5016 22.1969 15.1182C21.3903 15.7349 20.809 16.5998 20.5427 17.5796H13.2815C13.0152 16.5998 12.434 15.7349 11.6274 15.1182C10.8208 14.5016 9.83367 14.1675 8.81836 14.1675C7.80305 14.1675 6.81596 14.5016 6.00936 15.1182C5.20277 15.7349 4.6215 16.5998 4.35523 17.5796H3.03711V9.61303C3.03666 8.91606 3.24618 8.23512 3.63836 7.65897L6.7718 3.03396C6.88045 2.88132 7.02456 2.75737 7.19174 2.67277C7.35891 2.58818 7.54414 2.54547 7.73148 2.54834H16.9815C17.1514 2.54806 17.3192 2.58522 17.4731 2.65716C17.6269 2.7291 17.7631 2.83407 17.8718 2.96459L21.803 7.90178C21.9386 8.06613 22.1137 8.19343 22.3118 8.27178L30.7871 11.3127V17.5796Z" fill="#3468C0"/>
</svg>
