<svg width="35" height="22" viewBox="0 0 35 22" fill="none" xmlns="http://www.w3.org/2000/svg">
<path fill-rule="evenodd" clip-rule="evenodd" d="M0 1.65C0 1.21239 0.172851 0.792709 0.480528 0.483274C0.788205 0.173839 1.2055 0 1.64062 0H33.3594C33.7945 0 34.2118 0.173839 34.5195 0.483274C34.8271 0.792709 35 1.21239 35 1.65C35 2.08761 34.8271 2.50729 34.5195 2.81673C34.2118 3.12616 33.7945 3.3 33.3594 3.3H1.64062C1.2055 3.3 0.788205 3.12616 0.480528 2.81673C0.172851 2.50729 0 2.08761 0 1.65ZM0 11C0 10.5624 0.172851 10.1427 0.480528 9.83327C0.788205 9.52384 1.2055 9.35 1.64062 9.35H33.3594C33.7945 9.35 34.2118 9.52384 34.5195 9.83327C34.8271 10.1427 35 10.5624 35 11C35 11.4376 34.8271 11.8573 34.5195 12.1667C34.2118 12.4762 33.7945 12.65 33.3594 12.65H1.64062C1.2055 12.65 0.788205 12.4762 0.480528 12.1667C0.172851 11.8573 0 11.4376 0 11ZM1.64062 18.7C1.2055 18.7 0.788205 18.8738 0.480528 19.1833C0.172851 19.4927 0 19.9124 0 20.35C0 20.7876 0.172851 21.2073 0.480528 21.5167C0.788205 21.8262 1.2055 22 1.64062 22H33.3594C33.7945 22 34.2118 21.8262 34.5195 21.5167C34.8271 21.2073 35 20.7876 35 20.35C35 19.9124 34.8271 19.4927 34.5195 19.1833C34.2118 18.8738 33.7945 18.7 33.3594 18.7H1.64062Z" fill="#3468C0"/>
</svg>
